PathFileType	4	(X/Y/Z)	s06c0301.trc
DataRate	CameraRate	NumFrames	NumMarkers	Units	OrigDataRate	OrigDataStartFrame	OrigNumFrames
200	200	4	48	mm	200	1000	2000
Frame#	Time	racr			lacr			c7			jug			rlel			rdr			llel			ldr			s2			lic			ric			lasi			rasi			rpsi			lpsi			rgt			lgt			rth1			rth2			rth3			rth4			rlfc			rmfc			rsh1			rsh2			rsh3			rsh4			rlmal			rcal			rtoe			rmt5			lth1			lth2			lth4			lth3			llfc			lmfc			llmal			lcal			lmt5			lsh1			lsh2			lsh3			lsh4			ltoe			SBIKE			LBIKE			RBIKE			
		X1	Y1	Z1	X2	Y2	Z2	X3	Y3	Z3	X4	Y4	Z4	X5	Y5	Z5	X6	Y6	Z6	X7	Y7	Z7	X8	Y8	Z8	X9	Y9	Z9	X10	Y10	Z10	X11	Y11	Z11	X12	Y12	Z12	X13	Y13	Z13	X14	Y14	Z14	X15	Y15	Z15	X16	Y16	Z16	X17	Y17	Z17	X18	Y18	Z18	X19	Y19	Z19	X20	Y20	Z20	X21	Y21	Z21	X22	Y22	Z22	X23	Y23	Z23	X24	Y24	Z24	X25	Y25	Z25	X26	Y26	Z26	X27	Y27	Z27	X28	Y28	Z28	X29	Y29	Z29	X30	Y30	Z30	X31	Y31	Z31	X32	Y32	Z32	X33	Y33	Z33	X34	Y34	Z34	X35	Y35	Z35	X36	Y36	Z36	X37	Y37	Z37	X38	Y38	Z38	X39	Y39	Z39	X40	Y40	Z40	X41	Y41	Z41	X42	Y42	Z42	X43	Y43	Z43	X44	Y44	Z44	X45	Y45	Z45	X46	Y46	Z46	X47	Y47	Z47	X48	Y48	Z48	
1000	5.0000	726.099378	1225.543165	-53.645402	756.340121	1171.938697	-364.994324	780.722462	1266.252483	-218.072480	684.746171	1117.563451	-188.722441	554.596240	1049.706331	52.504586	712.825502	931.126536	-52.206676	556.007904	1044.725106	-502.108912	712.032950	925.304671	-416.961397	199.221813	1251.028577	-276.476937	363.629219	1138.962810	-410.066210	302.937179	1219.828206	-98.243451	358.860296	1090.651217	-369.695597	327.144904	1164.200744	-118.104386	239.791102	1283.390286	-260.789785	241.486374	1264.005504	-317.262246	274.240601	1171.115975	-59.252241	303.472096	1069.686144	-441.335089	355.714448	1072.881579	-39.083506	432.599711	1025.089366	-34.596232	471.997127	950.452458	-24.121673	455.688246	1047.455459	-54.502743	522.273788	853.736510	-42.769955	518.865941	821.790099	-155.579830	450.999717	745.051280	-18.634700	416.216818	666.802352	-38.586223	348.683932	612.725965	-41.881186	438.235679	655.286120	-70.682740	288.463292	543.707280	-49.586975	217.606931	535.588644	-97.559740	464.341476	412.046856	-106.216018	370.101624	431.077285	-32.089441	299.203362	943.672374	-447.892378	328.673960	863.345683	-432.785347	364.203509	867.709416	-422.793546	312.848212	776.684757	-417.301236	297.186599	660.051072	-389.403352	279.896172	655.828950	-271.240513	103.194296	350.623642	-370.890556	46.745161	384.650365	-327.693034	116.980596	200.446249	-400.032342	247.282588	567.879205	-408.344111	222.826264	487.089819	-386.676107	160.697060	423.457592	-385.539308	244.006764	479.912834	-354.163885	168.232830	129.591562	-343.682587	-203.840478	867.696114	-215.011828	-50.233778	80.327346	-415.167770	-49.658760	80.083937	-17.872156	
1001	5.0050	726.499192	1223.753626	-53.008701	756.635105	1173.201584	-366.102741	781.502798	1265.796936	-218.298473	684.723166	1117.416104	-189.970391	552.306900	1048.731110	51.437171	712.050481	931.301622	-52.598806	555.644955	1044.739680	-502.308094	712.199945	924.804784	-415.829046	199.699999	1252.561100	-276.387850	363.567851	1140.593133	-410.082906	302.968030	1218.729767	-97.744652	358.450819	1092.110901	-369.447023	326.728339	1163.075344	-118.047747	240.680588	1284.620826	-260.446994	242.527935	1265.833398	-317.380954	272.932723	1169.671970	-59.507531	304.199957	1071.776224	-441.887427	352.301555	1069.153324	-38.434367	428.356529	1019.166550	-33.621390	466.116950	942.523295	-24.477864	452.858274	1041.376955	-53.964336	512.870722	845.533367	-41.902381	511.392260	813.304987	-153.235806	444.242535	735.204337	-17.689222	411.294364	656.240756	-38.173600	345.230221	600.557922	-41.618639	433.400988	645.650923	-70.455301	286.538369	530.670279	-50.433756	216.449628	519.133015	-98.087620	468.921701	408.150630	-105.357219	373.468657	422.445538	-31.667020	301.995004	945.895409	-445.642587	333.121582	865.979960	-430.542872	368.336942	871.140579	-420.346037	318.799995	778.811421	-413.246254	303.936188	662.867235	-388.737673	285.395415	660.752687	-270.230093	101.778224	358.465826	-371.335197	45.571648	394.083614	-327.933707	111.380157	208.157838	-400.019327	252.012682	571.369350	-408.232960	225.329872	491.365665	-386.286596	161.703494	429.175467	-385.457340	246.266824	483.607599	-353.681021	160.963273	136.239709	-343.526692	-203.899432	867.510097	-214.884067	-50.210736	80.273018	-415.155670	-49.664183	80.023330	-17.839081	
1002	5.0100	727.018638	1221.218854	-53.606530	756.926456	1174.972579	-367.254081	782.428917	1265.519445	-218.900556	684.969190	1117.193916	-192.610648	550.595517	1047.997149	50.626432	711.642072	931.284363	-52.927197	556.303655	1045.371735	-503.102073	711.974609	924.799029	-416.322468	200.318018	1253.788134	-275.849829	363.431268	1141.990790	-410.159671	302.889544	1217.752303	-97.281659	358.220426	1093.591205	-369.319305	326.379170	1162.106585	-117.904767	241.477644	1285.353299	-260.010302	243.129540	1266.961162	-316.437865	271.287039	1167.707135	-59.158936	305.316677	1073.996808	-442.342858	349.202142	1064.922259	-37.617482	423.522089	1012.376392	-32.997420	459.683744	934.307994	-24.642775	448.308131	1033.781999	-52.032130	503.478565	836.363641	-40.695915	503.455871	804.180575	-151.295260	437.087766	724.883536	-17.323504	406.370057	645.003540	-37.955090	342.107342	587.166236	-42.100629	428.588934	635.219037	-70.401444	284.817491	517.356142	-50.564577	215.798878	502.815944	-99.570949	473.222211	403.025578	-103.515499	376.175482	412.975013	-31.019882	304.865914	948.220858	-443.687014	337.677737	868.910915	-428.595520	372.444641	874.795185	-417.665447	325.255170	781.302305	-411.737454	311.011694	666.263944	-388.559692	292.295968	665.030000	-269.543654	99.974847	366.858636	-372.007956	44.223030	404.160514	-328.590742	106.124648	216.652707	-400.100683	257.275526	574.582971	-408.467014	228.222038	496.248943	-386.828493	162.916138	434.982035	-385.029849	248.436114	487.308904	-352.762514	154.355960	143.861252	-343.520027	-203.793225	867.531150	-214.836536	-50.184894	80.278247	-415.156967	-49.630036	79.985010	-17.856878	
1003	5.0150	727.902409	1218.786731	-53.689885	757.083635	1176.845452	-368.362453	783.478211	1265.318370	-219.838336	685.455873	1117.081767	-195.101701	549.498871	1047.159832	50.191078	711.610716	931.008248	-53.256140	557.121861	1046.030298	-504.002119	711.881814	925.132444	-417.679489	200.709889	1254.677217	-275.389777	363.325810	1143.295970	-410.375055	303.059625	1215.858483	-96.408320	358.008743	1094.785185	-369.150387	327.229046	1160.808665	-117.815543	242.051305	1285.579623	-258.246934	243.409827	1267.408729	-314.633338	270.235900	1164.661173	-60.364326	306.521124	1076.112910	-442.665337	346.143377	1060.238885	-36.864370	418.339545	1005.151874	-31.891201	452.407762	925.892529	-24.300847	444.439873	1025.724730	-51.134546	494.026522	826.534062	-39.915323	494.124546	795.471430	-149.590183	429.782157	713.888744	-17.159588	401.562938	633.191792	-37.827195	338.648264	573.687495	-43.040226	423.937160	624.372478	-70.575494	283.919398	503.177454	-51.716561	215.957333	486.350695	-101.754329	477.196770	396.466862	-101.009214	378.487399	402.627134	-30.295275	308.036692	950.624622	-442.060430	342.524437	871.984274	-426.995135	376.846626	878.517536	-415.207099	332.699576	784.457153	-413.272267	318.764036	669.669930	-388.357768	300.203307	668.617882	-269.406557	97.875835	375.892456	-372.663939	42.648914	414.456916	-329.206844	101.323794	225.674878	-400.288030	263.193507	577.655113	-408.832869	231.163121	500.678107	-386.442239	163.959211	441.593723	-385.126363	250.639540	491.393209	-351.999464	148.342822	152.379316	-343.332935	-203.510320	867.651453	-214.830318	-50.166139	80.327163	-415.163310	-49.619008	80.002983	-17.886996	
